<svg xmlns="http://www.w3.org/2000/svg" viewBox="0 0 64 64" fill="none">
  <defs>
    <linearGradient id="g" x1="8" y1="4" x2="58" y2="60" gradientUnits="userSpaceOnUse">
      <stop offset="0" stop-color="#9C7424"/>
      <stop offset=".42" stop-color="#E7C573"/>
      <stop offset=".55" stop-color="#F7E6B0"/>
      <stop offset="1" stop-color="#B98E3A"/>
    </linearGradient>
  </defs>
  <rect width="64" height="64" rx="16" fill="#15181C"/>
  <path fill="url(#g)" d="M11 9h14v4h-2v20a9 9 0 0 0 18 0V13h-2V9h14v4h-2v20a19 19 0 0 1-38 0V13h-2z"/>
  <g fill="#15181C" opacity=".6">
    <circle cx="18" cy="18" r="1.7"/><circle cx="18" cy="26" r="1.7"/><circle cx="19.2" cy="34" r="1.7"/><circle cx="23.5" cy="41.5" r="1.7"/>
    <circle cx="46" cy="18" r="1.7"/><circle cx="46" cy="26" r="1.7"/><circle cx="44.8" cy="34" r="1.7"/><circle cx="40.5" cy="41.5" r="1.7"/>
  </g>
</svg>
